<svg xmlns="http://www.w3.org/2000/svg" version="1.1" xmlns:xlink="http://www.w3.org/1999/xlink" xmlns:svgjs="http://svgjs.dev/svgjs" viewBox="0 0 800 800"><defs><linearGradient x1="50%" y1="0%" x2="50%" y2="100%" id="ffflurry-grad" gradientTransform="rotate(270)"><stop stop-color="hsl(238, 82%, 13%)" stop-opacity="1" offset="0%"></stop><stop stop-color="hsl(162, 100%, 58%)" stop-opacity="1" offset="45%"></stop><stop stop-color="hsl(270, 73%, 53%)" stop-opacity="1" offset="100%"></stop></linearGradient></defs><rect width="100%" height="100%" fill="hsl(238, 82%, 13%)"></rect><g fill="url(#ffflurry-grad)"><rect width="229" height="6" x="8.5" y="490" rx="3" transform="rotate(54, 123, 493)" opacity="0.87"></rect><rect width="395" height="6" x="315.5" y="741" rx="3" transform="rotate(54, 513, 744)" opacity="0.48"></rect><rect width="443" height="6" x="106.5" y="672" rx="3" transform="rotate(54, 328, 675)" opacity="0.52"></rect><rect width="484" height="6" x="504" y="75" rx="3" transform="rotate(54, 746, 78)" opacity="0.70"></rect><rect width="349" height="6" x="26.5" y="373" rx="3" transform="rotate(54, 201, 376)" opacity="0.08"></rect><rect width="113" height="6" x="478.5" y="113" rx="3" transform="rotate(54, 535, 116)" opacity="0.61"></rect><rect width="449" height="6" x="132.5" y="607" rx="3" transform="rotate(54, 357, 610)" opacity="0.75"></rect><rect width="451" height="6" x="526.5" y="524" rx="3" transform="rotate(54, 752, 527)" opacity="0.62"></rect><rect width="220" height="6" x="364" y="296" rx="3" transform="rotate(54, 474, 299)" opacity="0.43"></rect><rect width="358" height="6" x="-69" y="553" rx="3" transform="rotate(54, 110, 556)" opacity="0.55"></rect><rect width="487" height="6" x="183.5" y="631" rx="3" transform="rotate(54, 427, 634)" opacity="0.30"></rect><rect width="373" height="6" x="-144.5" y="747" rx="3" transform="rotate(54, 42, 750)" opacity="0.31"></rect><rect width="416" height="6" x="166" y="189" rx="3" transform="rotate(54, 374, 192)" opacity="0.57"></rect><rect width="102" height="6" x="389" y="475" rx="3" transform="rotate(54, 440, 478)" opacity="0.78"></rect><rect width="291" height="6" x="153.5" y="296" rx="3" transform="rotate(54, 299, 299)" opacity="0.77"></rect><rect width="43" height="6" x="374.5" y="300" rx="3" transform="rotate(54, 396, 303)" opacity="0.68"></rect><rect width="212" height="6" x="538" y="70" rx="3" transform="rotate(54, 644, 73)" opacity="0.80"></rect><rect width="489" height="6" x="-106.5" y="165" rx="3" transform="rotate(54, 138, 168)" opacity="0.34"></rect><rect width="478" height="6" x="-118" y="728" rx="3" transform="rotate(54, 121, 731)" opacity="0.33"></rect><rect width="225" height="6" x="648.5" y="203" rx="3" transform="rotate(54, 761, 206)" opacity="0.45"></rect><rect width="226" height="6" x="240" y="367" rx="3" transform="rotate(54, 353, 370)" opacity="0.75"></rect><rect width="325" height="6" x="-103.5" y="591" rx="3" transform="rotate(54, 59, 594)" opacity="0.93"></rect><rect width="129" height="6" x="521.5" y="190" rx="3" transform="rotate(54, 586, 193)" opacity="0.93"></rect><rect width="561" height="6" x="423.5" y="696" rx="3" transform="rotate(54, 704, 699)" opacity="0.80"></rect><rect width="599" height="6" x="-256.5" y="121" rx="3" transform="rotate(54, 43, 124)" opacity="0.85"></rect><rect width="98" height="6" x="493" y="468" rx="3" transform="rotate(54, 542, 471)" opacity="0.21"></rect><rect width="61" height="6" x="672.5" y="767" rx="3" transform="rotate(54, 703, 770)" opacity="0.93"></rect><rect width="42" height="6" x="6" y="233" rx="3" transform="rotate(54, 27, 236)" opacity="0.77"></rect><rect width="39" height="6" x="249.5" y="421" rx="3" transform="rotate(54, 269, 424)" opacity="0.67"></rect><rect width="104" height="6" x="257" y="748" rx="3" transform="rotate(54, 309, 751)" opacity="0.30"></rect><rect width="223" height="6" x="434.5" y="32" rx="3" transform="rotate(54, 546, 35)" opacity="0.19"></rect><rect width="299" height="6" x="621.5" y="736" rx="3" transform="rotate(54, 771, 739)" opacity="0.95"></rect><rect width="559" height="6" x="172.5" y="66" rx="3" transform="rotate(54, 452, 69)" opacity="0.23"></rect><rect width="239" height="6" x="499.5" y="762" rx="3" transform="rotate(54, 619, 765)" opacity="0.61"></rect><rect width="318" height="6" x="31" y="468" rx="3" transform="rotate(54, 190, 471)" opacity="0.90"></rect><rect width="554" height="6" x="-186" y="255" rx="3" transform="rotate(54, 91, 258)" opacity="0.95"></rect><rect width="441" height="6" x="-34.5" y="55" rx="3" transform="rotate(54, 186, 58)" opacity="0.82"></rect><rect width="258" height="6" x="570" y="322" rx="3" transform="rotate(54, 699, 325)" opacity="0.80"></rect><rect width="174" height="6" x="154" y="585" rx="3" transform="rotate(54, 241, 588)" opacity="0.76"></rect><rect width="325" height="6" x="435.5" y="613" rx="3" transform="rotate(54, 598, 616)" opacity="0.67"></rect><rect width="176" height="6" x="486" y="714" rx="3" transform="rotate(54, 574, 717)" opacity="0.74"></rect><rect width="170" height="6" x="263" y="540" rx="3" transform="rotate(54, 348, 543)" opacity="0.41"></rect><rect width="375" height="6" x="-9.5" y="292" rx="3" transform="rotate(54, 178, 295)" opacity="0.97"></rect><rect width="259" height="6" x="479.5" y="535" rx="3" transform="rotate(54, 609, 538)" opacity="0.98"></rect><rect width="240" height="6" x="310" y="766" rx="3" transform="rotate(54, 430, 769)" opacity="0.14"></rect><rect width="297" height="6" x="484.5" y="392" rx="3" transform="rotate(54, 633, 395)" opacity="0.39"></rect><rect width="131" height="6" x="530.5" y="293" rx="3" transform="rotate(54, 596, 296)" opacity="0.08"></rect><rect width="517" height="6" x="121.5" y="43" rx="3" transform="rotate(54, 380, 46)" opacity="0.87"></rect><rect width="285" height="6" x="-82.5" y="380" rx="3" transform="rotate(54, 60, 383)" opacity="0.43"></rect><rect width="455" height="6" x="270.5" y="243" rx="3" transform="rotate(54, 498, 246)" opacity="0.10"></rect><rect width="591" height="6" x="452.5" y="415" rx="3" transform="rotate(54, 748, 418)" opacity="0.93"></rect><rect width="460" height="6" x="244" y="168" rx="3" transform="rotate(54, 474, 171)" opacity="0.75"></rect><rect width="369" height="6" x="19.5" y="759" rx="3" transform="rotate(54, 204, 762)" opacity="0.28"></rect><rect width="117" height="6" x="392.5" y="561" rx="3" transform="rotate(54, 451, 564)" opacity="0.09"></rect><rect width="486" height="6" x="270" y="645" rx="3" transform="rotate(54, 513, 648)" opacity="0.78"></rect><rect width="519" height="6" x="410.5" y="489" rx="3" transform="rotate(54, 670, 492)" opacity="0.77"></rect><rect width="595" height="6" x="-105.5" y="661" rx="3" transform="rotate(54, 192, 664)" opacity="0.80"></rect><rect width="227" height="6" x="564.5" y="212" rx="3" transform="rotate(54, 678, 215)" opacity="0.33"></rect><rect width="371" height="6" x="-160.5" y="516" rx="3" transform="rotate(54, 25, 519)" opacity="0.18"></rect><rect width="294" height="6" x="227" y="431" rx="3" transform="rotate(54, 374, 434)" opacity="0.83"></rect><rect width="540" height="6" x="475" y="617" rx="3" transform="rotate(54, 745, 620)" opacity="0.93"></rect><rect width="143" height="6" x="697.5" y="308" rx="3" transform="rotate(54, 769, 311)" opacity="0.98"></rect><rect width="860" height="6" x="-184" y="187" rx="3" transform="rotate(54, 246, 190)" opacity="0.62"></rect><rect width="487" height="6" x="52.5" y="75" rx="3" transform="rotate(54, 296, 78)" opacity="0.59"></rect><rect width="139" height="6" x="579.5" y="655" rx="3" transform="rotate(54, 649, 658)" opacity="0.93"></rect><rect width="357" height="6" x="121.5" y="485" rx="3" transform="rotate(54, 300, 488)" opacity="0.37"></rect><rect width="514" height="6" x="276" y="381" rx="3" transform="rotate(54, 533, 384)" opacity="0.40"></rect><rect width="497" height="6" x="275.5" y="560" rx="3" transform="rotate(54, 524, 563)" opacity="0.53"></rect><rect width="447" height="6" x="229.5" y="373" rx="3" transform="rotate(54, 453, 376)" opacity="0.45"></rect><rect width="123" height="6" x="368.5" y="698" rx="3" transform="rotate(54, 430, 701)" opacity="0.57"></rect><rect width="614" height="6" x="-239" y="39" rx="3" transform="rotate(54, 68, 42)" opacity="0.65"></rect><rect width="530" height="6" x="-202" y="651" rx="3" transform="rotate(54, 63, 654)" opacity="0.91"></rect></g></svg>